<?xml version="1.0" encoding="utf-8"?>
<!-- Generator: Adobe Illustrator 24.2.1, SVG Export Plug-In . SVG Version: 6.00 Build 0)  -->
<svg version="1.1" id="Camada_1" xmlns="http://www.w3.org/2000/svg" xmlns:xlink="http://www.w3.org/1999/xlink" x="0px" y="0px"
	 viewBox="0 0 1080 419.7" style="enable-background:new 0 0 1080 419.7;" xml:space="preserve">
<style type="text/css">
	.st0{fill:#FFFFFF;}
</style>
<g>
	<path class="st0" d="M220.82,411.09c-4.02-1.54-8.32-1.31-12.49-1.9c-14.23-2.03-28.05-5.59-41.56-10.48
		c-2.09-0.76-2.95-1.76-2.99-4.1c-0.14-7.34-0.11-14.68,0.11-22.01c0.08-2.5,0.75-2.72,2.95-1.77
		c26.83,11.6,54.85,16.13,83.95,13.71c18.56-1.54,36.48-5.93,53.55-13.44c2.81-1.24,3.61-0.77,3.74,2.23
		c0.31,7.11,0.24,14.22,0.08,21.33c-0.05,2.32-1.01,3.34-3.08,4.09c-17.27,6.26-35.01,10.32-53.35,11.7
		c-0.63,0.05-1.39-0.17-1.75,0.64C240.27,411.09,230.54,411.09,220.82,411.09z"/>
	<path class="st0" d="M41.09,168.28c1.36-5.77,2.53-11.6,4.1-17.31c9.65-35.23,28.55-64.51,56.71-87.8
		c0.43-0.36,0.88-0.71,1.35-1.02c0.16-0.11,0.41-0.1,0.95-0.22c-0.76,6.9-2.28,13.53-4.1,20.09c-9.65,34.74-28.33,63.63-56.2,86.55
		c-0.85,0.7-1.57,1.66-2.81,1.75C41.09,169.64,41.09,168.96,41.09,168.28z"/>
	<path class="st0" d="M41.09,250.35c0.91-0.09,1.44,0.56,2.03,1.05c33.48,27.66,53.7,62.96,60.97,105.73
		c0.07,0.44,0.01,0.89,0.01,1.47c-1.28,0.02-1.95-0.96-2.74-1.62c-32.44-26.98-52.19-61.32-59.6-102.81
		c-0.11-0.64,0.04-1.38-0.68-1.8C41.09,251.7,41.09,251.02,41.09,250.35z"/>
	<path class="st0" d="M1057.76,315.46c-1.35-0.35-3.25,1.04-3.97-1.31c-0.35-1.14-0.69-0.29-1.04,0.05
		c-2.28,2.24-5.13,2.21-7.93,1.7c-2.91-0.52-4.93-2.26-5.31-5.37c-0.4-3.26,0.86-5.77,3.88-7.2c2.17-1.03,4.51-1.3,6.9-1.51
		c1.11-0.1,3.01,1.11,3.3-1.09c0.24-1.9,0.19-3.9-1.86-5.06c-2.47-1.4-5.64-0.43-6.89,2.12c-0.41,0.83-0.24,2.02-1.74,2.12
		c-2,0.13-3.05-0.2-2.21-2.54c1.32-3.7,5.22-5.62,10.4-4.98c3.91,0.49,5.67,2.54,5.96,6.88c0.32,4.72-0.43,9.47,0.51,14.17
		C1057.76,314.1,1057.76,314.78,1057.76,315.46z M1050.62,304.57c-4.58,0.11-7.09,1.8-7.07,4.75c0.02,2.98,2.01,3.85,4.49,3.9
		c3.45,0.08,5.57-2.69,5.67-6.62C1053.77,303.8,1051.88,304.76,1050.62,304.57z"/>
	<path class="st0" d="M165.89,55.45c47.02-20.02,93.28-20,140.01-0.05c-5.04,4.35-9.79,8.14-14.2,12.28
		c-30.12,28.3-48.25,62.88-54.1,103.85c-0.2,1.44,0.2,4.09-1.53,3.99c-2.28-0.14-1.48-2.85-1.73-4.51
		c-6.48-42.88-25.95-78.66-58.5-107.31C172.81,61.03,169.62,58.53,165.89,55.45z"/>
	<path class="st0" d="M306.16,365.18c-47.07,20.02-93.3,20.05-139.54,0.34c-0.04-1.52,1-1.79,1.65-2.3
		c36.73-29.02,58.71-66.65,65.98-112.89c0.05-0.33,0.04-0.68,0.12-1.01c0.37-1.53-0.43-4.14,1.7-4.18c1.8-0.03,1.34,2.55,1.55,3.98
		c6.65,45.74,28.1,83.07,63.81,112.29C302.79,362.53,304.19,363.61,306.16,365.18z"/>
	<path class="st0" d="M692.5,229.33c-9.41,0.04-17.79-0.91-25.77-4.14c-13.91-5.62-21.77-17.83-21.25-32.65
		c0.08-2.27,0.67-3.21,3.11-3.1c4.06,0.19,8.13,0.09,12.2,0.03c1.45-0.02,2.17,0.21,2.26,1.99c0.71,13.35,5.04,18.41,18.18,21.09
		c8.54,1.75,17.1,1.56,25.46-1.03c10.56-3.27,15.16-10.45,13.36-20.34c-0.75-4.15-3.02-7.16-6.55-9.41
		c-7.48-4.76-15.99-6.65-24.41-8.71c-8.23-2.02-16.47-3.97-23.93-8.16c-7.27-4.08-13.64-9.27-15.66-17.78
		c-3.92-16.52,1.78-31.69,19.2-38.46c15.3-5.94,30.98-5.89,46.31,0.08c12.91,5.02,19.56,15.43,19.71,29.19
		c0.02,2.08-0.56,2.76-2.65,2.69c-4.18-0.14-8.36-0.04-12.54-0.05c-1.1,0-2.07,0.23-2.3-1.57c-1.44-11.39-5.09-15.42-16.36-17.78
		c-8.45-1.77-16.9-1.36-25.01,1.72c-8.14,3.09-11.76,10.21-9.52,17.76c1.03,3.48,3.39,5.75,6.38,7.56
		c7.36,4.45,15.64,6.36,23.82,8.43c7.88,2,15.8,3.86,23.08,7.58c9.24,4.72,16.5,11.18,17.9,22.21c2.76,21.84-8.76,37.47-30.42,41.48
		C701.99,228.92,696.84,229.46,692.5,229.33z"/>
	<path class="st0" d="M894.96,227.6c-8.96,0-8.95,0-12.17-8.34c-2.03-5.26-4.15-10.48-6.08-15.77c-0.6-1.65-1.44-2.21-3.19-2.21
		c-17.73,0.06-35.47,0.07-53.2-0.01c-1.91-0.01-2.76,0.63-3.4,2.38c-2.61,7.09-5.47,14.08-8.01,21.19c-0.79,2.22-1.9,2.93-4.17,2.81
		c-3.49-0.19-7.01-0.21-10.5,0c-2.77,0.17-3.22-0.47-2.18-3.1c7.45-18.75,14.76-37.55,22.11-56.34
		c7.68-19.63,15.39-39.24,22.96-58.91c0.88-2.29,1.96-3.08,4.37-2.97c4.4,0.2,8.81,0.14,13.21,0.02c1.94-0.05,2.97,0.47,3.73,2.41
		c15.07,38.76,30.21,77.49,45.39,116.21c0.81,2.06,0.66,2.83-1.75,2.66C899.71,227.47,897.33,227.6,894.96,227.6z M847.17,185.43
		c6.56,0,13.11-0.05,19.67,0.03c2.09,0.03,2.87-0.24,1.95-2.62c-6.88-17.77-13.63-35.59-20.44-53.39c-0.3-0.77-0.27-2.01-1.49-1.9
		c-0.93,0.08-0.95,1.19-1.21,1.87c-6.87,17.78-13.65,35.59-20.58,53.34c-1.03,2.63,0.01,2.73,2.1,2.71
		C833.83,185.38,840.5,185.43,847.17,185.43z"/>
	<path class="st0" d="M976.93,166.97c0.11,7.5-0.18,14.71,1.31,21.88c4.14,19.92,19.31,25.86,34.26,24.58
		c16.94-1.44,26.3-11.74,26.91-28.95c0.09-2.56,0.81-3.3,3.31-3.15c3.6,0.21,7.23,0.14,10.85,0.02c1.98-0.07,2.75,0.41,2.74,2.6
		c-0.13,26.21-18.52,44.88-44.72,45.39c-11.43,0.22-22.31-1.62-31.88-8.32c-10.57-7.4-16.66-17.87-18.64-30.35
		c-2.58-16.25-2.95-32.69,0.38-48.88c4.64-22.49,21.21-36.14,44.24-37.16c14.56-0.64,27.83,2.48,38.37,13.42
		c8.85,9.18,11.69,20.58,12.22,32.86c0.07,1.55-0.64,1.91-2.02,1.9c-4.41-0.05-8.82-0.1-13.22,0.02c-1.86,0.05-2.21-0.7-2.28-2.37
		c-0.12-2.7-0.34-5.43-0.91-8.06c-3.28-15.26-14.77-23.39-30.93-22.01c-17.03,1.45-26.77,10.84-29.24,27.92
		C976.76,154.61,977.08,160.93,976.93,166.97z"/>
	<path class="st0" d="M402.25,192.41c-14.78-5.78-29.97-9.99-45.76-11.76c-29.63-3.33-58.34,0.41-86.02,11.65
		c-1.38,0.56-3.36,2.24-4.26,0.75c-1.17-1.94,1.52-2.61,2.69-3.54c36.28-28.85,58.03-66.14,65.27-111.91
		c0.09-0.56,0.19-1.11,0.3-1.67c0.13-0.66,0.27-1.32,0.5-2.41c1.34,5.88,2.43,11.38,3.87,16.78c1.49,5.55,3.1,11.09,5.05,16.49
		c11.82,32.76,30.81,60.64,57.14,83.49c0.59,0.51,1.08,1.12,1.62,1.68C402.5,192.1,402.37,192.25,402.25,192.41z"/>
	<path class="st0" d="M402.66,228.71c-8.64,7.96-17.16,16.02-24.62,25.13c-22.06,26.93-36.35,57.44-42.6,91.71
		c-0.04,0.22-0.13,0.42-0.31,0.96c-0.97-1.88-0.9-3.71-1.2-5.46c-0.32-1.89-0.71-3.77-1.09-5.65c-8.65-42.8-30.17-77.66-64.53-104.6
		c-0.27-0.21-0.55-0.4-0.81-0.62c-0.73-0.65-2.1-1.2-1.53-2.32c0.66-1.3,1.92-0.54,2.94-0.11c10.13,4.2,20.54,7.54,31.29,9.74
		c33.73,6.91,66.69,4.25,98.85-8.09c1.05-0.4,2.13-0.75,3.19-1.12C402.38,228.43,402.51,228.57,402.66,228.71z"/>
	<path class="st0" d="M136.93,346.74c-4.19-22.94-11.94-44.58-23.56-64.8c-11.62-20.24-26.27-37.98-44.21-53.03
		c1.44-0.8,2.62,0.07,3.8,0.51c43.33,16.25,86.47,15.84,129.43-1.43c0.73-0.29,1.46-0.61,2.23-0.77c0.38-0.07,1.12,0.12,1.19,0.35
		c0.15,0.47,0.14,1.19-0.14,1.55c-0.47,0.61-1.19,1.02-1.81,1.5C165.91,260.29,144.1,299.23,136.93,346.74z"/>
	<path class="st0" d="M69.42,191.86c10.77-9.68,20.93-19.91,29.66-31.52c18.83-25.04,31.41-52.83,37.1-83.69
		c0.14-0.75,0.38-1.49,0.82-3.18c0.94,5.27,1.6,9.62,2.52,13.91c0.92,4.3,1.99,8.57,3.21,12.79c10.61,36.52,30.99,66.41,60.98,89.77
		c0.45,0.35,0.91,0.67,1.36,1.01c0.67,0.5,1.25,1.15,0.83,1.99c-0.46,0.91-1.36,0.6-2.09,0.33c-1.58-0.6-3.12-1.31-4.7-1.91
		c-42.11-15.99-84.23-15.9-126.35-0.03c-0.95,0.36-1.92,0.66-2.88,0.99C69.73,192.17,69.57,192.01,69.42,191.86z"/>
	<path class="st0" d="M307.62,50.78c-8.19-3.36-16.14-6.5-24.42-8.75c-39.4-10.74-77.95-8.31-115.63,7.48
		c-3.51,1.47-3.51,1.49-3.68-2.34c-0.32-7.11-0.27-14.23-0.06-21.35c0.06-1.94,0.58-2.98,2.54-3.7
		c26.75-9.87,54.31-13.97,82.78-12.08c19.05,1.26,37.48,5.24,55.44,11.68c2.74,0.98,3.63,2.37,3.65,5.1
		C308.27,34.71,308.68,42.6,307.62,50.78z"/>
	<path class="st0" d="M569.83,166.9c0,13.9,0.06,27.81-0.06,41.71c-0.02,2.48,0.53,3.44,3.16,3.23c2.92-0.24,5.88,0.02,8.81-0.08
		c1.64-0.06,2.18,0.56,2.14,2.16c-0.08,3.84-0.08,7.69,0,11.53c0.03,1.58-0.48,2.19-2.12,2.19c-13.79-0.04-27.58-0.04-41.37,0
		c-1.56,0-2.21-0.42-2.17-2.1c0.11-3.84,0.12-7.69,0-11.53c-0.06-1.87,0.68-2.31,2.38-2.25c2.82,0.11,5.67-0.19,8.47,0.09
		c2.96,0.29,3.45-0.88,3.44-3.58c-0.11-23.17-0.06-46.34-0.06-69.51c0-4.63-0.13-9.27,0.06-13.9c0.09-2.31-0.72-2.88-2.87-2.76
		c-2.93,0.17-5.88-0.04-8.81,0.07c-1.77,0.07-2.69-0.26-2.6-2.35c0.16-3.72,0.14-7.46,0.01-11.19c-0.07-1.87,0.7-2.24,2.38-2.23
		c13.68,0.05,27.35,0.06,41.03-0.01c1.84-0.01,2.3,0.67,2.26,2.37c-0.1,3.73-0.12,7.46,0.01,11.19c0.06,1.89-0.74,2.28-2.41,2.22
		c-2.71-0.11-5.44,0.16-8.13-0.08c-2.76-0.25-3.63,0.55-3.6,3.46C569.92,139.32,569.83,153.11,569.83,166.9z"/>
	<path class="st0" d="M368.29,62.01c34.89,27.94,55.58,64.02,62.43,108.08C395.7,142.28,375.03,106.16,368.29,62.01z"/>
	<path class="st0" d="M399.3,223.72c-41.66,16.47-83.39,16.76-126.13,0.54C315.77,207.9,357.5,207.63,399.3,223.72z"/>
	<path class="st0" d="M198.31,224.06c-32.02,16.14-100.23,15.76-125.91-0.63C114.41,207.65,156.09,207.91,198.31,224.06z"/>
	<path class="st0" d="M198.26,196.31c-37.28,15.87-84.93,17.32-126.18,0.62c20.51-8.26,41.28-12.37,62.9-12.51
		C156.68,184.28,177.58,188.22,198.26,196.31z"/>
	<path class="st0" d="M273.96,196.45c32.57-15.94,100.8-15.5,125.4,0.69C359.07,213.52,311.57,212.3,273.96,196.45z"/>
	<path class="st0" d="M204.81,184.17c-34.78-27.9-55.35-63.94-61.79-108.09C177.72,103.99,198.05,140.17,204.81,184.17z"/>
	<path class="st0" d="M229.29,250.4c-7.27,44.29-28.25,80.02-63.09,108.26C163.82,330.84,202.78,264.06,229.29,250.4z"/>
	<path class="st0" d="M368.13,358.92c1.27-34.08,35.13-92.57,62.59-108.4C426.33,289.87,402.27,333.38,368.13,358.92z"/>
	<path class="st0" d="M166.22,62.01c34.84,28.23,55.8,63.98,63.09,108.3C202.66,156.42,163.47,89.18,166.22,62.01z"/>
	<path class="st0" d="M329.03,345.44c-34.61-28.59-55.09-64.76-62.27-108.85C291.41,247.1,331.32,316.72,329.03,345.44z"/>
	<path class="st0" d="M329.11,75.79c-6.5,44.2-27.03,80.41-61.95,108.37C273.88,140.11,294.37,103.91,329.11,75.79z"/>
	<path class="st0" d="M204.81,236.5c-6.71,44.03-27.15,80.25-61.88,108.3C149.34,300.61,169.96,264.52,204.81,236.5z"/>
	<path class="st0" d="M306.05,358.37c-35.04-27.72-56.14-63.6-62.94-107.84C277.98,278.34,299.05,314.24,306.05,358.37z"/>
	<path class="st0" d="M243.1,170.08c6.78-44.16,27.91-79.96,62.67-108.15c1.17,9.48-9.88,41.74-20.64,60.33
		C274.32,140.94,260.36,156.89,243.1,170.08z"/>
	<path class="st0" d="M923.9,295c0-3.4,0.06-6.07-0.02-8.74c-0.05-1.56,0.42-2.21,2.1-2.19c1.79,0.02,1.62,1.11,1.62,2.25
		c0,9.04,0.01,18.08-0.02,27.12c0,0.69,0.44,1.77-0.71,1.95c-0.93,0.14-2.47,0.64-2.74-0.45c-0.58-2.39-1.22-1.14-2.28-0.42
		c-5.26,3.56-12.61,1.23-14.96-4.65c-3.8-9.51,2.28-18.55,11.73-17.5C920.44,292.56,922.01,293.31,923.9,295z M923.94,303.87
		c0-4.47-1.63-7.45-4.8-8.43c-2.84-0.88-5.35-0.24-7.26,2.13c-2.46,3.05-2.62,9.32-0.3,12.77c1.61,2.39,3.87,3.32,6.71,2.69
		C922.09,312.2,923.94,309.18,923.94,303.87z"/>
	<path class="st0" d="M713.56,316.11c-5.09-0.01-8.96-2.2-10.36-6.12c-0.29-0.81-1.7-2.21,0.11-2.77c1.25-0.39,2.9-0.71,3.62,1.31
		c1.25,3.47,3.99,4.74,7.49,4.52c2.71-0.17,4.92-1.28,5.37-4.22c0.43-2.82-0.98-4.81-3.61-5.8c-1.89-0.71-3.88-1.18-5.8-1.81
		c-4.84-1.58-7.1-4.55-6.54-8.54c0.56-3.99,3.97-6.83,8.63-7.19c5.19-0.4,8.82,1.59,10.36,5.76c0.35,0.95,1.4,2.32-0.18,2.85
		c-1.18,0.4-2.71,0.74-3.45-1.46c-1.23-3.66-4.23-5.03-7.72-4.09c-2.01,0.55-3.45,1.69-3.64,3.92c-0.19,2.14,0.66,3.83,2.64,4.66
		c1.86,0.78,3.84,1.27,5.77,1.89c5.66,1.83,8.29,5.18,7.57,9.64C723.07,313.22,719.09,316.11,713.56,316.11z"/>
	<path class="st0" d="M879.97,285.43c6.49-0.01,10.73,2.63,12.07,7.28c0.27,0.92,1.49,2.46-0.39,3.03
		c-1.42,0.43-2.73,0.23-3.26-1.78c-0.9-3.41-3.37-5.26-6.86-5.58c-3.85-0.35-6.97,1.15-8.76,4.55c-2.76,5.24-2.71,10.65,0.11,15.87
		c1.72,3.17,4.64,4.48,8.22,4.25c3.53-0.23,6.03-2,6.99-5.39c0.54-1.89,1.62-2.5,3.18-1.99c2.14,0.7,0.74,2.26,0.35,3.31
		c-2.77,7.47-13.91,9.63-20.27,4c-6.79-6.02-6.2-19.64,1.1-25.01C874.91,286.16,877.67,285.35,879.97,285.43z"/>
	<path class="st0" d="M792.43,294.82c0-3.09,0.05-5.8-0.02-8.51c-0.04-1.48,0.26-2.28,2.01-2.24c1.77,0.04,1.63,1.11,1.63,2.25
		c0,8.8,0.03,17.61-0.04,26.41c-0.01,1,0.83,2.55-1.35,2.79c-2,0.22-2.42-0.85-2.28-2.66c-5.04,4.19-11.12,4.24-14.87,0.39
		c-4.11-4.23-4.24-12.98-0.26-17.5C780.93,291.58,787.21,291.09,792.43,294.82z M792.48,303.47c0.14-0.85-0.18-2.42-0.72-3.89
		c-0.96-2.65-2.89-4.25-5.77-4.45c-3.02-0.21-5.24,1.11-6.47,3.86c-1.6,3.59-1.48,7.22,0.21,10.75c1.13,2.35,3.14,3.55,5.7,3.47
		c2.63-0.08,4.76-1.21,5.92-3.75C792.11,307.8,792.36,306.03,792.48,303.47z"/>
	<path class="st0" d="M973.08,312.45c-4.98,4.56-11.18,4.69-14.99,0.95c-4.29-4.21-4.44-13.17-0.31-17.75
		c3.73-4.13,10.26-4.56,15.08-0.54c0-3.23,0.03-6.07-0.01-8.91c-0.02-1.28,0.14-2.13,1.78-2.13c1.56,0,1.88,0.66,1.87,2.04
		c-0.04,9.15-0.02,18.29-0.01,27.44c0,1.09-0.01,1.91-1.54,1.98C973.11,315.61,972.5,314.88,973.08,312.45z M972.87,303.34
		c-0.07-0.44-0.17-1.79-0.51-3.08c-0.83-3.19-2.93-4.99-6.26-5.12c-3.22-0.13-5.35,1.56-6.43,4.46c-1.23,3.28-1.12,6.61,0.33,9.84
		c1.13,2.51,3.13,3.86,5.84,3.79c2.78-0.07,4.97-1.33,6.07-4.04C972.56,307.6,972.85,305.95,972.87,303.34z"/>
	<path class="st0" d="M812.86,305.29c-2.03,0-4.07,0.09-6.1-0.03c-1.67-0.1-2.28,0.46-1.87,2.12c0.69,2.78,1.86,5.17,5.03,5.68
		c3,0.48,5.44-0.48,6.55-3.46c0.75-2,2.44-1.92,3.54-1.34c1.45,0.77,0.24,2.19-0.3,3.14c-2,3.5-5.25,4.81-9.12,4.7
		c-3.78-0.1-6.84-1.64-8.5-5.15c-1.99-4.19-2.08-8.52-0.14-12.76c2.19-4.77,7.44-7.06,12.47-5.57c4.25,1.26,7.13,6.1,6.72,11
		c-0.11,1.35-0.6,1.73-1.85,1.69C817.15,305.24,815,305.29,812.86,305.29z M810.6,302.47c1.47,0,2.94-0.09,4.4,0.02
		c1.87,0.15,2.43-0.57,2.01-2.35c-0.56-2.36-1.71-4.25-4.17-4.85c-2.34-0.58-4.51-0.02-6.13,1.89c-1.12,1.31-2.26,3.01-1.71,4.56
		c0.56,1.57,2.56,0.47,3.9,0.72C809.46,302.55,810.04,302.47,810.6,302.47z"/>
	<path class="st0" d="M845.49,305.29c-2.03,0-4.08,0.11-6.1-0.03c-2.06-0.15-2.21,0.76-1.77,2.41c0.74,2.83,2.09,5.06,5.26,5.44
		c2.89,0.36,5.21-0.7,6.25-3.5c0.74-2.02,2.4-1.91,3.52-1.36c1.53,0.75,0.25,2.15-0.25,3.07c-1.94,3.56-5.2,4.86-9.07,4.78
		c-3.93-0.08-7.02-1.72-8.7-5.39c-1.82-3.99-1.91-8.11-0.19-12.17c2.05-4.85,7.12-7.29,12.29-6.03c4.4,1.08,7.47,6.01,7.05,11.08
		c-0.11,1.33-0.57,1.76-1.84,1.72C849.78,305.24,847.63,305.29,845.49,305.29z M843.54,302.47c0.67,0,1.37,0.12,2.02-0.02
		c1.44-0.31,3.8,1,4.17-0.76c0.45-2.13-0.63-4.42-2.74-5.77c-2.82-1.79-6.64-0.69-8.42,2.4c-1.95,3.39-1.53,4.15,2.27,4.16
		C841.74,302.47,842.64,302.47,843.54,302.47z"/>
	<path class="st0" d="M950.55,306.58c0,2.26,0.03,4.51-0.02,6.77c-0.01,0.7,0.55,1.79-0.54,1.99c-0.99,0.18-2.42,0.79-2.97-0.63
		c-0.59-1.52-0.85-0.79-1.67-0.17c-3.05,2.32-8.44,2.09-11.02-0.31c-2.21-2.05-2.65-5.73-0.89-8.39c2.03-3.07,5.37-3.33,8.6-3.99
		c1.52-0.31,4.14,1.64,4.49-1.67c0.24-2.3-0.29-4.42-2.98-4.93c-2.5-0.48-5.01-0.14-5.75,2.74c-0.61,2.35-2.29,2.28-3.58,1.72
		c-1.57-0.68-0.39-2.17,0.07-3.16c1.63-3.47,5.66-5,10.53-4.11c3.44,0.63,5.11,2.55,5.43,6.7c0.19,2.47,0.03,4.96,0.03,7.44
		C950.38,306.58,950.46,306.58,950.55,306.58z M946.55,307.11c0.05-2.47,0.05-2.47-2.27-2.54c-4.77-0.14-7.75,1.58-7.79,4.61
		c-0.04,2.89,1.83,3.95,4.37,4.05C944.28,313.37,946.47,310.95,946.55,307.11z"/>
	<path class="st0" d="M727.83,299.64c1.17-6.68,8.63-9.84,14.08-6.1c1.59,1.09,2.46,2.64,2.53,4.56c0.19,5.3,0.34,10.6,0.51,15.91
		c0.02,0.7,0.07,1.47-0.91,1.43c-0.94-0.04-2.36,0.58-2.71-0.62c-0.55-1.92-0.84-0.88-1.74-0.25c-3.04,2.14-6.37,2.11-9.62,0.56
		c-2.52-1.21-3.38-3.48-3.2-6.2c0.17-2.62,1.51-4.46,3.82-5.56c2.17-1.03,4.51-1.32,6.89-1.54c1.24-0.12,3.48,1.22,3.46-1.68
		c-0.02-2.45-0.55-4.58-3.45-4.96c-2.28-0.3-4.57,0.05-5.27,2.55C731.51,300.25,729.97,300.05,727.83,299.64z M737.84,304.57
		c-4.63,0.13-7.06,1.84-6.99,4.86c0.07,3.01,2.13,3.78,4.58,3.8c3.44,0.03,5.55-2.81,5.57-6.72
		C741.01,303.61,738.97,304.89,737.84,304.57z"/>
	<path class="st0" d="M678.55,292.29c6.97,0,11.34,4.65,11.26,11.97c-0.08,7.31-4.54,11.93-11.46,11.85
		c-6.68-0.07-11.1-4.78-11.13-11.88C667.19,296.96,671.63,292.28,678.55,292.29z M685.66,304.2c0.01-6.51-4.14-10.46-9.23-8.78
		c-3.17,1.04-5.09,4.29-5.12,8.69c-0.03,4.34,1.89,7.66,5.04,8.72C681.49,314.56,685.65,310.7,685.66,304.2z"/>
	<path class="st0" d="M999.43,306.65c0,2.26,0.02,4.51-0.01,6.77c-0.01,0.71,0.5,1.75-0.62,1.95c-0.92,0.16-2.36,0.67-2.74-0.45
		c-0.81-2.41-1.4-0.51-2.09-0.06c-2.7,1.79-7.81,1.72-10.27-0.27c-2.37-1.92-2.89-4.45-2.01-7.32c0.65-2.11,2.14-3.38,4.12-4.18
		c2.12-0.86,4.34-1.12,6.6-1.27c1.03-0.07,2.77,0.91,2.97-1.11c0.19-2.01,0.28-4.14-2.09-5.22c-2.66-1.21-5.77-0.23-6.62,2.63
		c-0.72,2.42-2.44,2.03-3.65,1.55c-1.34-0.53-0.33-1.96,0.08-2.9c1.57-3.57,5.37-5.14,10.38-4.38c3.62,0.55,5.45,2.6,5.74,6.8
		c0.17,2.47,0.03,4.96,0.03,7.44C999.31,306.65,999.37,306.65,999.43,306.65z M991.9,304.58c-3.92,0.07-6.52,1.76-6.51,4.67
		c0.01,2.88,1.9,3.9,4.43,3.99c3.53,0.12,5.55-2.48,5.68-6.5C995.59,304.06,993.94,304.59,991.9,304.58z"/>
	<path class="st0" d="M766.39,312.34c-3.5,3.79-7.24,4.63-11.12,3.13c-3.62-1.4-4.64-4.33-4.66-7.86
		c-0.01-4.18,0.03-8.36-0.03-12.54c-0.02-1.45,0.17-2.32,1.96-2.32c1.83,0,1.95,0.95,1.93,2.36c-0.04,4.07,0.02,8.13,0.02,12.2
		c0,3.08,1.1,5.28,4.48,5.7c3.03,0.38,5.36-1.15,6.35-4.36c1.37-4.41,0.59-8.97,0.81-13.47c0.04-0.89-0.54-2.17,1.09-2.36
		c1.67-0.19,2.76,0.04,2.72,2.24c-0.13,5.98-0.04,11.97-0.05,17.96c0,1.22,0.26,2.45-1.74,2.51
		C766.19,315.6,765.77,314.75,766.39,312.34z"/>
	<path class="st0" d="M649.43,304.44c0,3.05,0.02,6.1-0.01,9.15c-0.01,0.72,0.28,1.76-0.91,1.82c-0.95,0.04-2.48,0.58-2.72-0.54
		c-0.52-2.45-1.18-0.81-1.97-0.3c-3.11,2.01-6.4,2.08-9.69,0.58c-3.09-1.41-3.9-4.17-3.91-7.3c0-4.29,0.03-8.59-0.05-12.88
		c-0.03-1.55,0.38-2.23,2.08-2.22c1.75,0.02,1.67,1.03,1.66,2.22c-0.02,3.96-0.06,7.91,0.03,11.87c0.09,3.96,1.44,5.73,4.45,6.15
		c3.3,0.46,5.58-1.14,6.59-4.9c1.11-4.1,0.47-8.32,0.59-12.48c0.04-1.52-0.19-2.93,2.14-2.85c2.34,0.07,1.67,1.66,1.69,2.87
		C649.47,298.57,649.43,301.5,649.43,304.44z"/>
	<path class="st0" d="M552.59,295.54c3.08-3.2,6.99-4.16,10.78-2.72c3.98,1.52,4.69,4.8,4.65,8.52c-0.04,3.95-0.04,7.91,0.01,11.86
		c0.02,1.4-0.08,2.33-1.93,2.33c-1.81-0.01-1.97-0.9-1.96-2.32c0.04-4.18-0.03-8.36-0.01-12.54c0.01-2.82-1.01-4.92-3.99-5.41
		c-2.89-0.48-5.08,0.69-6.36,3.36c-1.31,2.73-1.34,5.67-1.3,8.62c0.03,2.03-0.01,4.07,0.01,6.1c0.01,1.18,0.11,2.19-1.66,2.18
		c-1.65,0-2.14-0.57-2.12-2.16c0.07-5.87-0.01-11.75,0.05-17.62c0.01-1.17-0.71-2.77,1.6-2.99
		C552.69,292.54,552.53,294.03,552.59,295.54z"/>
	<path class="st0" d="M1009.72,295.22c3.18-3.5,6.91-3.56,10.73-2.25c3.73,1.28,4.34,4.53,4.35,7.98c0.01,3.95,0.03,7.89,0,11.84
		c-0.01,1.25,0.49,2.72-1.8,2.76c-2.23,0.04-1.9-1.3-1.9-2.62c0-3.95,0.01-7.89-0.02-11.84c-0.02-2.99-0.95-5.35-4.33-5.86
		c-2.89-0.43-5.37,1.13-6.47,4.24c-1.5,4.26-0.66,8.72-0.88,13.08c-0.07,1.35,0.56,2.99-1.95,2.99c-2.58,0-1.85-1.73-1.86-3.01
		c-0.05-5.52-0.08-11.05,0.03-16.57c0.02-1.1-0.99-2.83,1.33-3.16C1008.77,292.54,1009.49,293.5,1009.72,295.22z"/>
	<path class="st0" d="M589.12,298.96c-2.36,0.53-3.79,0.52-4.86-1.65c-1.14-2.31-4.21-2.87-6.13-1.61c-2.05,1.35-1.91,4.3,0.46,5.49
		c1.89,0.95,4.03,1.39,6.01,2.2c3.11,1.27,4.99,3.41,4.6,7.02c-0.39,3.58-2.94,4.86-5.96,5.5c-4.61,0.98-8.87-0.77-10.43-4.25
		c-0.4-0.89-1.56-2.21,0.06-2.79c1.07-0.39,2.67-0.73,3.37,1.16c1.04,2.81,3.34,3.44,6.05,3.03c1.56-0.24,2.85-0.99,3.1-2.67
		c0.24-1.63-0.58-2.89-2.04-3.54c-1.43-0.64-2.95-1.08-4.44-1.59c-4.32-1.46-6.16-3.48-6.05-6.69c0.1-3.06,2.17-5.42,5.35-6.11
		c4.26-0.93,8.08,0.43,9.79,3.54C588.46,296.87,588.71,297.86,589.12,298.96z"/>
	<path class="st0" d="M617.85,304.24c0-1.92,0-3.84,0-5.76c0-1.33,0.3-2.86-1.9-2.69c-0.92,0.07-1.07-0.59-1.07-1.34
		c0.01-0.71,0.05-1.47,1-1.39c2.12,0.17,1.97-1.24,1.98-2.64c0.01-1.28-0.42-2.73,1.83-2.79c2.54-0.07,2.02,1.62,1.92,2.94
		c-0.15,1.92,0.5,2.72,2.45,2.45c0.96-0.13,1.75,0.02,1.76,1.36c0.01,1.31-0.71,1.57-1.71,1.41c-2.3-0.38-2.56,0.85-2.5,2.73
		c0.12,3.72,0.05,7.45,0.04,11.18c-0.01,1.75,0.32,3.21,2.53,3.17c0.94-0.02,1.44,0.32,1.48,1.36c0.05,1.28-0.75,1.43-1.7,1.59
		c-3.77,0.64-5.87-0.96-6.07-4.83c-0.12-2.25-0.02-4.52-0.02-6.77C617.87,304.24,617.86,304.24,617.85,304.24z"/>
	<path class="st0" d="M656.45,304.28c0-2.03-0.02-4.06,0.01-6.09c0.02-1.31,0.07-2.56-1.85-2.38c-0.9,0.08-1.1-0.55-1.09-1.31
		c0.01-0.69,0-1.48,0.96-1.42c2.46,0.16,1.94-1.59,1.96-2.97c0.02-1.28-0.1-2.41,1.83-2.47c2.11-0.06,2.12,1.13,2,2.57
		c-0.14,1.75-0.05,3.21,2.38,2.83c0.92-0.14,1.77-0.04,1.8,1.32c0.02,1.29-0.65,1.61-1.67,1.45c-2.25-0.37-2.6,0.77-2.54,2.7
		c0.13,3.72,0.05,7.45,0.04,11.17c-0.01,1.73,0.23,3.23,2.47,3.21c0.89-0.01,1.49,0.24,1.53,1.31c0.05,1.25-0.72,1.46-1.68,1.64
		c-3.71,0.69-5.9-0.96-6.11-4.79c-0.12-2.25-0.02-4.51-0.02-6.77C656.47,304.28,656.46,304.28,656.45,304.28z"/>
	<path class="st0" d="M594.44,304.45c0-2.03-0.02-4.05,0.01-6.08c0.02-1.4,0.17-2.8-1.97-2.57c-0.82,0.09-1.19-0.44-1.18-1.26
		c0.01-0.72,0.1-1.53,0.97-1.45c2.62,0.24,2.19-1.55,2.16-3.08c-0.03-1.32-0.06-2.39,1.86-2.37c1.99,0.02,1.86,1.23,1.75,2.46
		c-0.18,2.01,0.23,3.33,2.68,2.94c1.06-0.17,1.7,0.27,1.66,1.49c-0.04,1.36-0.97,1.4-1.87,1.27c-2.35-0.34-2.52,0.98-2.47,2.81
		c0.09,3.38-0.01,6.76,0.04,10.13c0.03,2.03-0.16,4.28,2.97,4.18c0.94-0.03,0.97,0.73,1,1.42c0.03,0.78-0.32,1.16-1.09,1.42
		c-3.23,1.1-6.31-0.84-6.47-4.23c-0.11-2.36-0.02-4.73-0.02-7.09C594.46,304.45,594.45,304.45,594.44,304.45z"/>
	<path class="st0" d="M542.31,300.53c0,4.17,0.01,8.35,0,12.52c0,1.19,0.35,2.47-1.71,2.48c-1.83,0-1.95-0.89-1.95-2.3
		c0.03-8.23,0.02-16.47,0.02-24.7c0-1.25-0.18-2.45,1.77-2.51c2.25-0.07,1.87,1.38,1.87,2.68
		C542.32,292.63,542.31,296.58,542.31,300.53z"/>
	<path class="st0" d="M610.78,303.98c0,3.05-0.01,6.09,0.01,9.14c0.01,1.27,0.18,2.44-1.8,2.42c-1.72-0.02-2.06-0.73-2.05-2.24
		c0.06-6.09,0.06-12.18,0-18.28c-0.02-1.52,0.31-2.25,2.04-2.26c1.93-0.01,1.84,1.11,1.82,2.42
		C610.76,298.11,610.78,301.05,610.78,303.98z"/>
	<path class="st0" d="M1034.67,304.28c0,3.05-0.03,6.09,0.02,9.14c0.02,1.29-0.11,2.11-1.77,2.11c-1.67,0-2.11-0.62-2.1-2.19
		c0.06-6.21,0.06-12.41,0-18.62c-0.02-1.52,0.59-1.92,2-1.94c1.53-0.03,1.91,0.62,1.88,2.03
		C1034.62,297.96,1034.67,301.12,1034.67,304.28z"/>
	<path class="st0" d="M901.3,304.61c0,2.81,0.01,5.62,0,8.44c0,1.21,0.27,2.45-1.73,2.48c-1.87,0.03-1.92-0.91-1.91-2.29
		c0.04-6.07,0.03-12.15,0.01-18.23c0-1.21,0-2.15,1.7-2.18c1.82-0.03,1.97,0.92,1.95,2.32C901.27,298.3,901.3,301.46,901.3,304.61z"
		/>
	<path class="st0" d="M235.93,205.84c-0.69-7.63-1.34-15.26-2.1-22.88c-0.19-1.88,0.23-3.3,2.24-3.3c1.85,0,2.23,1.35,2.07,3.1
		c-0.69,7.74-1.25,15.49-1.86,23.24C236.16,205.94,236.05,205.89,235.93,205.84z"/>
	<path class="st0" d="M236.3,214.82c0.7,7.73,1.35,15.47,2.12,23.19c0.18,1.81-0.45,3.06-2.16,3.09c-1.74,0.03-2.3-1.19-2.13-3.03
		c0.69-7.74,1.21-15.49,1.79-23.24C236.04,214.82,236.17,214.82,236.3,214.82z"/>
	<path class="st0" d="M230.23,214.24c-5.87,4.1-11.75,8.18-17.59,12.33c-1.27,0.9-2.17,0.33-2.89-0.54
		c-0.77-0.93-0.98-2.28,0.25-2.89c6.58-3.28,13.22-6.42,19.84-9.61C229.97,213.77,230.1,214,230.23,214.24z"/>
	<path class="st0" d="M242.36,206.19c5.95-4.16,11.47-7.97,16.92-11.89c1.49-1.07,2.65-0.64,3.39,0.59c0.66,1.1,0.49,2.36-1,3.05
		c-5.78,2.73-11.54,5.5-17.32,8.22C243.99,206.34,243.48,206.19,242.36,206.19z"/>
	<path class="st0" d="M229.76,207.1c-6.53-3.14-13.07-6.26-19.59-9.43c-1.34-0.65-1.18-1.95-0.54-2.87
		c0.71-1.02,1.73-1.63,3.14-0.63c5.74,4.11,11.55,8.13,17.33,12.18C229.98,206.61,229.87,206.85,229.76,207.1z"/>
	<path class="st0" d="M242.51,214.61c2.2-0.5,3.46,0.67,4.83,1.31c4.58,2.12,9.08,4.42,13.68,6.51c1.61,0.73,2.54,1.76,1.67,3.33
		c-0.98,1.77-2.38,1.38-3.92,0.27C253.51,222.23,248.15,218.55,242.51,214.61z"/>
	<path class="st0" d="M1032.7,285.46c1.59,0.03,2.39,0.94,2.41,2.3c0.02,1.4-0.92,2.33-2.32,2.31c-1.36-0.02-2.31-0.81-2.29-2.32
		C1030.51,286.28,1031.33,285.54,1032.7,285.46z"/>
	<path class="st0" d="M611.27,287.87c-0.32,1.4-1.12,2.32-2.54,2.19c-1.36-0.13-2.22-0.98-2.11-2.47c0.11-1.48,1-2.17,2.43-2.11
		C610.57,285.55,611.1,286.6,611.27,287.87z"/>
	<path class="st0" d="M899.75,290.13c-1.54-0.12-2.5-0.85-2.58-2.25c-0.08-1.4,0.74-2.32,2.2-2.38c1.43-0.06,2.32,0.64,2.42,2.13
		C901.88,289.17,900.88,289.77,899.75,290.13z"/>
	<path class="st0" d="M764.57,286.21c-0.55,0.8-0.86,1.4-1.31,1.85c-1.04,1.05-1.46,3.01-3.53,2.65c-0.54-0.1-0.67-0.64-0.37-1.05
		c1.1-1.52,1.19-4.16,4.07-3.73C763.65,285.97,763.87,286.04,764.57,286.21z"/>
	<path class="st0" d="M402.26,228.27c0.3-0.04,0.79-0.21,0.85-0.11c0.25,0.42-0.18,0.45-0.45,0.55
		C402.51,228.57,402.38,228.43,402.26,228.27z"/>
	<path class="st0" d="M402.65,191.96c0.28,0.09,0.69,0.14,0.44,0.55c-0.06,0.1-0.55-0.06-0.85-0.1
		C402.37,192.25,402.5,192.1,402.65,191.96z"/>
	<path class="st0" d="M69.88,192.33c-0.32,0.26-0.65,0.47-0.99,0.06c-0.02-0.02,0.35-0.35,0.53-0.53
		C69.57,192.01,69.73,192.17,69.88,192.33z"/>
</g>
</svg>
